<mxfile host="app.diagrams.net" agent="Mozilla/5.0 (Windows NT 10.0; Win64; x64) AppleWebKit/537.36 (KHTML, like Gecko) Chrome/131.0.0.0 Safari/537.36" version="24.8.6">
  <diagram name="Seite-1" id="sFnG489EmkgQnljpEZe_">
    <mxGraphModel dx="1195" dy="643" grid="1" gridSize="10" guides="1" tooltips="1" connect="1" arrows="1" fold="1" page="1" pageScale="1" pageWidth="1169" pageHeight="827" math="0" shadow="0">
      <root>
        <mxCell id="0" />
        <mxCell id="1" parent="0" />
        <mxCell id="6wZAPI2cAhV_cJ3bggKC-1" value="&lt;b&gt;Funktionsbaustein&lt;/b&gt;" style="rounded=0;whiteSpace=wrap;html=1;fillColor=#ffe6cc;strokeColor=#d79b00;" vertex="1" parent="1">
          <mxGeometry x="400" y="200" width="160" height="30" as="geometry" />
        </mxCell>
        <mxCell id="6wZAPI2cAhV_cJ3bggKC-2" value="" style="rounded=0;whiteSpace=wrap;html=1;fillColor=#fff2cc;strokeColor=#d6b656;" vertex="1" parent="1">
          <mxGeometry x="400" y="230" width="160" height="60" as="geometry" />
        </mxCell>
        <mxCell id="6wZAPI2cAhV_cJ3bggKC-3" value="EingÃ¤nge:" style="text;html=1;align=left;verticalAlign=middle;whiteSpace=wrap;rounded=0;fontStyle=1;fontSize=10;" vertex="1" parent="1">
          <mxGeometry x="403" y="232" width="60" height="20" as="geometry" />
        </mxCell>
        <mxCell id="6wZAPI2cAhV_cJ3bggKC-6" style="edgeStyle=orthogonalEdgeStyle;rounded=0;orthogonalLoop=1;jettySize=auto;html=1;endArrow=none;endFill=0;entryX=1;entryY=0.5;entryDx=0;entryDy=0;strokeWidth=2;" edge="1" parent="1" source="6wZAPI2cAhV_cJ3bggKC-4" target="6wZAPI2cAhV_cJ3bggKC-8">
          <mxGeometry relative="1" as="geometry">
            <mxPoint x="440" y="270" as="targetPoint" />
            <Array as="points">
              <mxPoint x="420" y="270" />
              <mxPoint x="420" y="270" />
            </Array>
          </mxGeometry>
        </mxCell>
        <mxCell id="6wZAPI2cAhV_cJ3bggKC-4" value="Interface&lt;span style=&quot;white-space: pre; font-size: 10px;&quot;&gt;&#x9;&lt;/span&gt;&lt;span style=&quot;white-space: pre; font-size: 10px;&quot;&gt;&#x9;&lt;/span&gt;:I_Int_A" style="text;html=1;align=left;verticalAlign=middle;whiteSpace=wrap;rounded=0;fontSize=10;" vertex="1" parent="1">
          <mxGeometry x="404" y="255" width="130" height="30" as="geometry" />
        </mxCell>
        <mxCell id="6wZAPI2cAhV_cJ3bggKC-8" value="&lt;b&gt;Objekt &lt;/b&gt;(I_Int_A)" style="rounded=0;whiteSpace=wrap;html=1;fillColor=#F18E8E;strokeColor=#b85450;" vertex="1" parent="1">
          <mxGeometry x="200" y="255" width="160" height="35" as="geometry" />
        </mxCell>
        <mxCell id="6wZAPI2cAhV_cJ3bggKC-18" style="edgeStyle=orthogonalEdgeStyle;rounded=0;orthogonalLoop=1;jettySize=auto;html=1;entryX=0.5;entryY=0;entryDx=0;entryDy=0;endArrow=none;endFill=0;dashed=1;" edge="1" parent="1" source="6wZAPI2cAhV_cJ3bggKC-11" target="6wZAPI2cAhV_cJ3bggKC-1">
          <mxGeometry relative="1" as="geometry" />
        </mxCell>
        <mxCell id="6wZAPI2cAhV_cJ3bggKC-11" value="&lt;b&gt;Interface: &lt;/b&gt;I_Int_A" style="rounded=0;whiteSpace=wrap;html=1;fillColor=#A9C4EB;strokeColor=#6c8ebf;" vertex="1" parent="1">
          <mxGeometry x="200" y="130" width="160" height="30" as="geometry" />
        </mxCell>
        <mxCell id="6wZAPI2cAhV_cJ3bggKC-12" value="Methoden" style="rounded=0;whiteSpace=wrap;html=1;fillColor=#dae8fc;strokeColor=#6c8ebf;fontSize=10;" vertex="1" parent="1">
          <mxGeometry x="200" y="160" width="160" height="20" as="geometry" />
        </mxCell>
        <mxCell id="6wZAPI2cAhV_cJ3bggKC-15" style="edgeStyle=orthogonalEdgeStyle;rounded=0;orthogonalLoop=1;jettySize=auto;html=1;entryX=0.5;entryY=0;entryDx=0;entryDy=0;strokeWidth=2;" edge="1" parent="1" source="6wZAPI2cAhV_cJ3bggKC-14" target="6wZAPI2cAhV_cJ3bggKC-8">
          <mxGeometry relative="1" as="geometry" />
        </mxCell>
        <mxCell id="6wZAPI2cAhV_cJ3bggKC-14" value="Eigenschaften" style="rounded=0;whiteSpace=wrap;html=1;fillColor=#dae8fc;strokeColor=#6c8ebf;fontSize=10;" vertex="1" parent="1">
          <mxGeometry x="200" y="180" width="160" height="20" as="geometry" />
        </mxCell>
        <mxCell id="6wZAPI2cAhV_cJ3bggKC-16" value="IMPLEMENTS" style="text;html=1;align=center;verticalAlign=middle;whiteSpace=wrap;rounded=0;" vertex="1" parent="1">
          <mxGeometry x="292" y="210" width="60" height="30" as="geometry" />
        </mxCell>
        <mxCell id="6wZAPI2cAhV_cJ3bggKC-19" value="Instanziierung" style="text;html=1;align=center;verticalAlign=middle;whiteSpace=wrap;rounded=0;fontStyle=2" vertex="1" parent="1">
          <mxGeometry x="400" y="120" width="60" height="30" as="geometry" />
        </mxCell>
      </root>
    </mxGraphModel>
  </diagram>
</mxfile>
